<svg width="1920" height="1080" viewBox="0 0 1920 1080" fill="none" xmlns="http://www.w3.org/2000/svg">
<g clip-path="url(#clip0)">
<rect width="1920" height="1080" fill="#180A32"/>
<path d="M547.887 818.526L27.9999 1119.21" stroke="#60BAEC" stroke-width="10"/>
<path d="M420.998 833L-23.0006 1041.64" stroke="#60BAEC" stroke-width="10"/>
<line x1="1503.31" y1="831.568" x2="1928.31" y2="1053.57" stroke="#60BAEC" stroke-width="10"/>
<line x1="2109" y1="1046.56" x2="-18.9473" y2="1046.56" stroke="#60BAEC" stroke-width="10"/>
<line x1="1786.01" y1="979" x2="107.004" y2="981.001" stroke="#60BAEC" stroke-width="10"/>
<line x1="1662" y1="914" x2="245.001" y2="914.994" stroke="#60BAEC" stroke-width="10"/>
<path d="M1393 831.835L1829.86 1167.79" stroke="#60BAEC" stroke-width="10"/>
<path d="M676.355 819.903L335.658 1146.22" stroke="#60BAEC" stroke-width="10"/>
<path d="M1241.99 787L1440.52 1097.67" stroke="#60BAEC" stroke-width="10"/>
<line x1="876.489" y1="836.758" x2="674.171" y2="1142.75" stroke="#60BAEC" stroke-width="10"/>
<line x1="1127.68" y1="832.242" x2="1253.3" y2="1166.68" stroke="#60BAEC" stroke-width="10"/>
<line x1="996" y1="833.986" x2="997" y2="1185.08" stroke="#60BAEC" stroke-width="10"/>
<line x1="-43" y1="195.5" x2="1942" y2="195.5" stroke="#C63B57" stroke-width="5"/>
<line x1="-40" y1="187" x2="1945" y2="187" stroke="#C63B57" stroke-width="6"/>
<line x1="-3" y1="208" x2="1939" y2="208" stroke="#C63B57" stroke-width="2"/>
<line x1="-32" y1="202.5" x2="1940" y2="202.5" stroke="#C63B57" stroke-width="3"/>
<line x1="-3" y1="212.5" x2="1939" y2="212.5" stroke="#C63B57"/>
<line y1="-2.5" x2="2221" y2="-2.5" transform="matrix(1 -8.74228e-08 -8.74228e-08 -1 -252 130)" stroke="#C63B57" stroke-width="5"/>
<line y1="-2.5" x2="2221" y2="-2.5" transform="matrix(1 -8.74228e-08 -8.74228e-08 -1 -252 138)" stroke="#C63B57" stroke-width="5"/>
<line y1="-1" x2="2172.89" y2="-1" transform="matrix(1 0 0 -1 -207.244 119.733)" stroke="#C63B57" stroke-width="2"/>
<line y1="-1.5" x2="2206.45" y2="-1.5" transform="matrix(1 0 0 -1 -239.693 124.4)" stroke="#C63B57" stroke-width="3"/>
<line y1="-0.5" x2="2172.89" y2="-0.5" transform="matrix(1 0 0 -1 -207.244 116)" stroke="#C63B57"/>
</g>
<defs>
<clipPath id="clip0">
<rect width="1920" height="1080" fill="white"/>
</clipPath>
</defs>
</svg>
